<svg xmlns="http://www.w3.org/2000/svg" xmlns:xlink="http://www.w3.org/1999/xlink" version="1.1" id="Calque_1" x="0px" y="0px" viewBox="0 0 214 150" style="enable-background:new 0 0 214 150;" xml:space="preserve">
<style type="text/css">
	.st0{fill:#303030;}
	.st1{clip-path:url(#SVGID_2_);fill:#1CBA85;}
	.st2{clip-path:url(#SVGID_2_);fill:#078C66;}
	.st3{clip-path:url(#SVGID_2_);fill:#014034;}
	.st4{clip-path:url(#SVGID_2_);fill:#067354;}
	.st5{clip-path:url(#SVGID_4_);fill:#1CBA85;}
	.st6{clip-path:url(#SVGID_4_);fill:#078C66;}
	.st7{clip-path:url(#SVGID_4_);fill:#014034;}
	.st8{clip-path:url(#SVGID_4_);fill:#067354;}
	.st9{clip-path:url(#SVGID_6_);fill:#067354;}
	.st10{clip-path:url(#SVGID_6_);fill:#1CBA85;}
	.st11{clip-path:url(#SVGID_6_);fill:#078C66;}
	.st12{clip-path:url(#SVGID_6_);fill:#014034;}
	.st13{fill:#1CBA85;}
	.st14{fill:#014034;}
</style>
<g>
	<g>
		<path class="st0" d="M13.9,107.2h15.9v6h-10v5.7h10v6h-10v14.4h-5.9V107.2z"/>
		<path class="st0" d="M58.3,127.4c0,6.9-5.3,12.5-12.5,12.5c-6.9,0-12.3-5.5-12.3-12.5c0-7.2,5.8-12.5,12.3-12.5    C52.6,115,58.3,120.4,58.3,127.4z M39.4,127.4c0,4,2.5,6.9,6.4,6.9c3.7,0,6.5-2.7,6.5-6.8c0-4-2.6-6.9-6.5-6.9    C42,120.6,39.4,123.5,39.4,127.4z"/>
		<path class="st0" d="M63.1,115.6h5.9V128c0,4.2,1.3,6.5,4.5,6.5c3.2,0,4.5-2.2,4.5-6.2v-12.6h5.9v10.9c0,4.4-0.3,7.6-2.8,10.4    c-1.9,2.1-4.3,3-7.6,3c-5.7,0-9.2-2.9-10.2-8.4c-0.3-1.9-0.2-3-0.2-5V115.6z"/>
		<path class="st0" d="M95.8,118c2.3-1.9,4.4-3,7-3c4.4,0,8.1,3,8.1,8.1v16.2H105v-11.2c0-4.7-0.4-7.7-4-7.7c-1.7,0-3.1,0.8-4,2.3    c-1.2,1.9-1.2,4.1-1.2,6.5v10.1h-5.9v-23.7h5.9V118z"/>
		<path class="st0" d="M134.2,136.8c-2.1,2.1-4.3,3.1-7.3,3.1c-6,0-11.3-5.2-11.3-12.5c0-7.4,5-12.5,11.2-12.5    c2.9,0,5.3,1.1,7.5,3.2v-11.7h5.9v32.9h-5.9V136.8z M121.6,127.4c0,4.1,2.7,7.1,6.4,7.1c3.7,0,6.5-2.8,6.5-7.1c0-4.2-2.8-7-6.5-7    C124,120.4,121.6,123.5,121.6,127.4z"/>
		<path class="st0" d="M168.4,134.7c-2.5,3.6-5.9,5.2-10.9,5.2c-7.5,0-12.4-5.5-12.4-12.5c0-6.5,4.7-12.5,12.3-12.5    c7.5,0,12.6,5.4,12.6,12.9c0,0.5,0,0.8,0,1.3h-19.1c0.6,3.5,3.3,5.5,6.7,5.5c2.5,0,4.2-0.7,5.9-2.3L168.4,134.7z M164,124.5    c-0.8-2.8-3.3-4.5-6.5-4.5c-2.9,0-5.2,1.5-6.4,4.5H164z"/>
		<path class="st0" d="M178.5,118.6c1.1-2.5,3-3.6,5-3.6c1.3,0,2,0.4,2.6,0.6l-1.8,5.1c-0.4-0.2-1.1-0.5-1.7-0.5c-1.7,0-3,2-3.2,5.4    c0,1.3,0,2.8,0,4.1v9.6h-5.9v-23.7h5.1V118.6z"/>
		<path class="st0" d="M193.7,129c-3.8-1.9-5.7-4.2-5.7-7.2c0-3.7,3.1-6.8,7.7-6.8c3.1,0,5.9,1.4,7.8,3.9l-3.7,3.7    c-1.3-1.3-2.7-2.2-4.1-2.2c-1.2,0-2.1,0.5-2.1,1.4c0,0.9,0.8,1.3,2.1,2l2.2,1.1c3.9,2,6,4.1,6,7.6c0,4.2-3.3,7.4-8.5,7.4    c-3.4,0-6.3-1.4-8.3-4.1l3.7-4c1.4,1.6,3.4,2.8,5,2.8c1.5,0,2.6-0.8,2.6-1.9c0-1-1-1.8-2.6-2.6L193.7,129z"/>
	</g>
	<g>
		<g>
			<g>
				<defs>
					<path id="SVGID_1_" d="M78.3,80.6v16.1H13.9V83.9l32.8-31c7.5-7.2,8.9-11.6,8.9-15.7c0-6.7-4.6-10.6-13.6-10.6       c-7.3,0-13.5,2.8-17.6,8.5L10,25.9c6.6-9.6,18.5-15.8,33.8-15.8c19,0,31.6,9.7,31.6,25.2c0,8.3-2.3,15.8-14.2,26.9L41.7,80.6       H78.3z"/>
				</defs>
				<clipPath id="SVGID_2_">
					<use xlink:href="#SVGID_1_" style="overflow:visible;"/>
				</clipPath>
				<polygon class="st1" points="56,24.6 70.4,60.3 83.4,28.8 76,22.7     "/>
				<polygon class="st2" points="56,24.6 64.4,1.9 76,22.7     "/>
				<polygon class="st3" points="56,24.6 51.4,-6.9 64.4,1.9     "/>
				<polygon class="st4" points="51.4,-6.9 41.7,36.2 56,24.6     "/>
				<polygon class="st2" points="44,25.7 26.8,-5.5 50.5,-3     "/>
				<polygon class="st3" points="43.4,28.5 27.7,28.8 13.4,6.5 32.3,4.3 44,25.5     "/>
				<polygon class="st1" points="27.7,28.8 6.4,42.2 3.2,15.3 17.4,12.8     "/>
				<polygon class="st2" points="16,36.2 10.1,52.9 41.7,51.5 27.7,28.8     "/>
				<polygon class="st4" points="34.7,40.1 37.7,28.6 27.7,28.8     "/>
				<polygon class="st3" points="48.8,30.4 68.8,56.3 56,24.6     "/>
				<polygon class="st2" points="47.7,45 45.4,64 69.8,58.9 69,56.1 49.1,30.6     "/>
				<polygon class="st4" points="11.5,79.3 37.9,86.7 19.9,103.9 8.7,99.3     "/>
				<polygon class="st3" points="37.9,86.7 26.8,61.7 11.5,79.3     "/>
				<polygon class="st2" points="37.9,86.7 41.7,105.3 22.9,101     "/>
				<polygon class="st2" points="37.9,86.7 39.3,57.5 26.8,61.7     "/>
				<polygon class="st1" points="37.9,86.7 64.1,60.1 45.4,64     "/>
				<polygon class="st4" points="39.3,57.5 37.9,86.7 45.4,64 47.3,48.4     "/>
				<polygon class="st3" points="44.2,80.4 61.1,101.6 41.2,103.2 37.9,86.7     "/>
				<polygon class="st1" points="78.3,80.2 61.1,85.8 78.3,103.4 88,98.8 87.1,85.8     "/>
				<polygon class="st4" points="61.1,85.8 54.3,93 61.1,101.6 78.3,103.4     "/>
				<polygon class="st2" points="44,80.2 54.2,93.2 61.1,85.8 78.3,80.2 73.2,74.2     "/>
			</g>
		</g>
		<g>
			<g>
				<defs>
					<path id="SVGID_3_" d="M203.6,80.6v16.1h-64.4V83.9l32.8-31c7.5-7.2,8.9-11.6,8.9-15.7c0-6.7-4.6-10.6-13.6-10.6       c-7.3,0-13.5,2.8-17.6,8.5l-14.4-9.2c6.6-9.6,18.5-15.8,33.8-15.8c19,0,31.6,9.7,31.6,25.2c0,8.3-2.3,15.8-14.2,26.9L167,80.6       H203.6z"/>
				</defs>
				<clipPath id="SVGID_4_">
					<use xlink:href="#SVGID_3_" style="overflow:visible;"/>
				</clipPath>
				<polygon class="st5" points="181.3,24.6 195.7,60.3 208.7,28.8 201.3,22.7     "/>
				<polygon class="st6" points="181.3,24.6 189.7,1.9 201.3,22.7     "/>
				<polygon class="st7" points="181.3,24.6 176.7,-6.9 189.7,1.9     "/>
				<polygon class="st8" points="176.7,-6.9 166.9,36.2 181.3,24.6     "/>
				<polygon class="st6" points="169.3,25.7 152.1,-5.5 175.8,-3     "/>
				<polygon class="st7" points="168.7,28.5 153,28.8 138.7,6.5 157.5,4.3 169.3,25.5     "/>
				<polygon class="st5" points="153,28.8 131.7,42.2 128.5,15.3 142.7,12.8     "/>
				<polygon class="st6" points="141.3,36.2 135.4,52.9 166.9,51.5 153,28.8     "/>
				<polygon class="st8" points="160,40.1 163,28.6 153,28.8     "/>
				<polygon class="st7" points="174.1,30.4 194.1,56.3 181.3,24.6     "/>
				<polygon class="st6" points="173,45 170.7,64 195.1,58.9 194.3,56.1 174.4,30.6     "/>
				<polygon class="st8" points="136.8,79.3 163.2,86.7 145.2,103.9 134,99.3     "/>
				<polygon class="st7" points="163.2,86.7 152.1,61.7 136.8,79.3     "/>
				<polygon class="st6" points="163.2,86.7 166.9,105.3 148.2,101     "/>
				<polygon class="st6" points="163.2,86.7 164.6,57.5 152.1,61.7     "/>
				<polygon class="st5" points="163.2,86.7 189.4,60.1 170.7,64     "/>
				<polygon class="st8" points="164.6,57.5 163.2,86.7 170.7,64 172.6,48.4     "/>
				<polygon class="st7" points="169.5,80.4 186.4,101.6 166.5,103.2 163.2,86.7     "/>
				<polygon class="st5" points="203.6,80.2 186.4,85.8 203.6,103.4 213.3,98.8 212.4,85.8     "/>
				<polygon class="st8" points="186.4,85.8 179.6,93 186.4,101.6 203.6,103.4     "/>
				<polygon class="st6" points="169.3,80.2 179.5,93.2 186.4,85.8 203.6,80.2 198.5,74.2     "/>
			</g>
		</g>
		<g>
			<g>
				<defs>
					<polygon id="SVGID_5_" points="82.4,33.2 93.9,44.8 105.2,33.5 105.2,96.8 125.1,96.8 125.1,10.3 105.3,10.3      "/>
				</defs>
				<clipPath id="SVGID_6_">
					<use xlink:href="#SVGID_5_" style="overflow:visible;"/>
				</clipPath>
				<polygon class="st9" points="97,25.5 100.9,8.5 110,25 104,28.7     "/>
				<polygon class="st10" points="100.9,8.5 110,25 117.4,6.1     "/>
				<polygon class="st10" points="110,25 103.8,59.4 103.8,28.7     "/>
				<polygon class="st9" points="110,25 118.1,47.9 120.4,25     "/>
				<polygon class="st11" points="110,25 105.4,50.6 118.1,47.9     "/>
				<polygon class="st12" points="118.1,47.9 112,64.7 102.4,71.6 103.8,59.4 105.4,50.7     "/>
				<polygon class="st11" points="112,64.7 113.5,78.8 102.4,87.2 103.8,70.6     "/>
				<polygon class="st10" points="102.4,87.2 113.5,78.8 106,96.3 100.2,97.4     "/>
				<polygon class="st10" points="112,64.7 121.2,61.1 127.6,58.7 126.6,80.8 120.4,76.6     "/>
				<polygon class="st10" points="120.4,25 118.1,47.9 121.2,49.7 128.9,53.5     "/>
				<polygon class="st9" points="118.1,47.9 112,64.7 127.6,58.7 127.6,52.8     "/>
				<polygon class="st12" points="110.1,25.1 120.5,25 130.4,25 129.5,7 116.7,7.6     "/>
				<polygon class="st11" points="120.4,25 126.7,46.2 128.9,25     "/>
				<polygon class="st12" points="113.5,78.8 126.6,84.9 128.2,99.5 106,96.3     "/>
				<polygon class="st9" points="112,64.7 120.4,76.6 126.6,80.8 126.6,84.9 113.5,78.8     "/>
				<polygon class="st11" points="100.9,8.5 82.4,33.2 97,25.5     "/>
				<polygon class="st12" points="97,25.5 99.5,39.3 103.8,34.9 103.8,28.7     "/>
				<polygon class="st10" points="88.4,30.1 97,25.5 99.5,39.3 97.2,41.5     "/>
				<path class="st10" d="M84.4,45.2"/>
				<polygon class="st9" points="97.2,41.5 90.8,41.7 90.2,32.4     "/>
				<polygon class="st12" points="82.4,33.2 88.4,30.1 90.2,32.4 90.8,41.7     "/>
				<polygon class="st11" points="90.8,41.7 97.2,41.5 93.9,44.8     "/>
			</g>
		</g>
		<polygon class="st13" points="105.2,96.5 105.2,96.8 106,96.3 106,94.4   "/>
		<polygon class="st14" points="105.2,96.8 106,96.3 109.5,96.8   "/>
	</g>
</g>
<script xmlns=""/></svg>