<svg version="1.2" xmlns="http://www.w3.org/2000/svg" viewBox="0 0 307 51" width="307" height="51">
	<title>zark_1</title>
	<style>
		.s0 { fill: #ffffff } 
	</style>
	<g id="logo zark">
		<g id="&lt;Group&gt;">
			<path id="&lt;Path&gt;" class="s0" d="m11 40.4h53.6c0.3 0 2.9 1.9 3.2 2.4 1.9 3-0.3 5.5-3.2 6.7-16.9-1.2-35.9 1.6-52.5 0.1-10.6-1-13.6-13.7-4.5-18.6 14.2-7.6 35.9-10.9 50.4-18.3 1.1-0.5 2.3-0.8 2.1-2.4h-53.6c-3.1 0-6.5-8.4 2.1-9.2 16.4-1.5 35.1 1.2 51.8 0.1 9.5 1.6 12.3 13.2 3.7 18.3l-51.9 19z"/>
			<path id="&lt;Path&gt;" class="s0" d="m169.1 1.3c15 0.8 32.1-1.6 46.8-0.1 15.8 1.6 20 20.5 7.6 29.7 1.3 4.5 9.5 12.4 6.4 16.5-6.7 9.1-11.9-12.6-16.2-13.9-10.9 0.4-22-0.8-32.8-0.4-11 0.4-4.6 7.3-7.2 13.4-1.8 4.4-7.4 3.7-8.4-1-2.1-9.5 2.4-20.1 12.8-21.2 11.6-1.3 26.6 1.7 37.8-0.1 8-1.2 8.2-12 0.7-13.9l-48-0.4c-4.8-2.1-4.2-7 0.5-8.6z"/>
			<path id="&lt;Path&gt;" class="s0" d="m249.2 20.8h38.2c4.4-3.7 7.8-15.4 11.6-18.5 1.9-1.7 5.5-1.3 6.6 1 2.3 4.8-8.5 16.9-9.9 22 1.5 5.2 10.6 15.5 10.3 20.4-0.2 2.5-2.7 4.2-5.2 3.7-4.1-0.8-9.5-16.4-13.4-19.5h-38.2v17.2c0 1.5-7.7 5.6-8.4-2.8-1.2-12.6 0.8-27.1 0.1-39.8 1.3-5.5 8.3-2.6 8.3-0.9z"/>
			<path id="&lt;Path&gt;" class="s0" d="m126.4 13.3c-6.9-6.5-15.1-3.2-20.1 3.6-6.9 9.4-12 21.3-18.9 30.9-3.6 3.9-9.1 0.5-7.3-4.5 7.9-9.8 17.2-35.4 28.5-40.2 26-10.9 34.6 25.1 46.4 40.1 1.7 5.4-4.2 8.6-7.7 4.2z"/>
		</g>
	</g>
</svg>